<svg xmlns="http://www.w3.org/2000/svg" width="26.565" height="29.923" viewBox="0 0 26.565 29.923">
  <g id="Group_509" data-name="Group 509" transform="translate(-384.226 -22.072)">
    <path id="Path_1707" data-name="Path 1707" d="M694.716,107.753H679.022V82.817h15.695a1.247,1.247,0,0,0,0-2.494H679.022a2.39,2.39,0,0,0-2.415,2.494v24.936a2.39,2.39,0,0,0,2.415,2.494h15.695a1.247,1.247,0,0,0,0-2.494Zm7.964-13.594L697,89.044a1.18,1.18,0,0,0-.84-.352,1.228,1.228,0,0,0-1.207,1.247,1.261,1.261,0,0,0,.461.979l3.464,3.12H685.058a1.248,1.248,0,0,0,0,2.494h14.15l-3.166,3.749a1.263,1.263,0,0,0-.341.867,1.228,1.228,0,0,0,1.207,1.247,1.191,1.191,0,0,0,.948-.476l4.975-5.889a1.271,1.271,0,0,0-.149-1.871Z" transform="translate(-292.381 -58.251)" fill="#eedeba"/>
  </g>
</svg>
