<svg id="Group_67" data-name="Group 67" xmlns="http://www.w3.org/2000/svg" width="57.959" height="56.639" viewBox="0 0 57.959 56.639">
  <ellipse id="Ellipse_8" data-name="Ellipse 8" cx="28.98" cy="28.32" rx="28.98" ry="28.32" fill="#6a331d"/>
  <path id="Path_1737" data-name="Path 1737" d="M81.379,695.429a6.645,6.645,0,1,0,6.8,6.643A6.722,6.722,0,0,0,81.379,695.429Zm0,9.965a3.323,3.323,0,1,1,3.4-3.321A3.361,3.361,0,0,1,81.379,705.394Zm-.051-23.263a20.216,20.216,0,0,0-20.445,19.98,19.675,19.675,0,0,0,5.728,13.865h0l.032.032c.16.161.321.319.485.475h0l14.251,13.926v0l14.768-14.432-.052-.049a19.677,19.677,0,0,0,5.677-13.816A20.216,20.216,0,0,0,81.328,682.131ZM93.5,713.716,81.379,725.559l-12.147-11.87h0a16.363,16.363,0,0,1-4.85-11.616,17,17,0,0,1,33.992,0A16.364,16.364,0,0,1,93.5,713.715Z" transform="translate(-52.342 -677.226)" fill="#faf5ea"/>
</svg>
