<svg xmlns="http://www.w3.org/2000/svg" width="43.753" height="52.86" viewBox="0 0 43.753 52.86">
  <g id="Group_517" data-name="Group 517" transform="translate(-305.966 -274.613)">
    <path id="Path_3466" data-name="Path 3466" d="M327.843,274.613A21.874,21.874,0,0,0,312.1,311.671h0l.034.035c.171.176.343.35.519.52h0L327.9,327.473h0l15.747-15.856h0a21.876,21.876,0,0,0-15.8-37Z" fill="#6a331d"/>
    <path id="Path_3467" data-name="Path 3467" d="M328.794,297.734a5.426,5.426,0,0,0-.687.479l-.479-.5a8.056,8.056,0,1,0-1,1.043l.461.481a6.136,6.136,0,0,0-.5.714l9.728,9.662,2.2-2.218Zm-5.8.348a5.637,5.637,0,1,1,3.718-7.052A5.637,5.637,0,0,1,322.995,298.082Z" fill="#fff"/>
  </g>
</svg>
