<svg id="Group_68" data-name="Group 68" xmlns="http://www.w3.org/2000/svg" width="57.959" height="56.639" viewBox="0 0 57.959 56.639">
  <g id="Group_506" data-name="Group 506">
    <ellipse id="Ellipse_9" data-name="Ellipse 9" cx="28.98" cy="28.32" rx="28.98" ry="28.32" fill="#331e12"/>
    <path id="Path_1738" data-name="Path 1738" d="M83.507,558.253a6.645,6.645,0,1,0-6.8-6.644A6.722,6.722,0,0,0,83.507,558.253Zm0-9.965a3.323,3.323,0,1,1-3.4,3.321A3.361,3.361,0,0,1,83.507,548.288Zm6.8,13.287h-13.6V564.9h13.6a6.723,6.723,0,0,1,6.8,6.643h0a3.361,3.361,0,0,1-3.4,3.322H73.31a3.361,3.361,0,0,1-3.4-3.322h0a6.723,6.723,0,0,1,6.8-6.643v-3.321a10.083,10.083,0,0,0-10.2,9.965h0a6.722,6.722,0,0,0,6.8,6.643H93.7a6.722,6.722,0,0,0,6.8-6.643h0A10.083,10.083,0,0,0,90.306,561.575Z" transform="translate(-54.514 -533.254)" fill="#faf5ea"/>
  </g>
</svg>
