<svg id="Group_66" data-name="Group 66" xmlns="http://www.w3.org/2000/svg" width="57.959" height="56.639" viewBox="0 0 57.959 56.639">
  <ellipse id="Ellipse_7" data-name="Ellipse 7" cx="28.98" cy="28.32" rx="28.98" ry="28.32" fill="#331e12"/>
  <path id="Path_1736" data-name="Path 1736" d="M79.807,997.381a6.645,6.645,0,1,0,6.8,6.643A6.722,6.722,0,0,0,79.807,997.381Zm0,9.965a3.323,3.323,0,1,1,3.4-3.321A3.361,3.361,0,0,1,79.807,1007.346Zm21.067.894-2.357-1.331v-.005a3.274,3.274,0,0,1-.029-5.742l.006.01,2.384-1.343s2.325-1.285,1.1-4.421a23.161,23.161,0,0,0-3.391-5.8h0c-2.161-2.612-4.5-1.3-4.5-1.3l-2.341,1.319-.007,0a3.459,3.459,0,0,1-3.424.017,3.3,3.3,0,0,1-1.693-2.88h-.007v-2.671s.022-2.61-3.373-3.135a24.359,24.359,0,0,0-6.833-.025v0c-3.395.525-3.4,3.162-3.4,3.162v2.689l0,0a3.3,3.3,0,0,1-1.7,2.858,3.459,3.459,0,0,1-3.38,0L65.557,988.3s-2.337-1.319-4.5,1.291h0a23.146,23.146,0,0,0-3.4,5.795c-1.233,3.135,1.09,4.422,1.09,4.422l2.382,1.346.014-.022c0,.013,0,.025-.006.038a3.274,3.274,0,0,1-.008,5.712l0-.005-2.384,1.343s-2.338,1.317-1.107,4.454h0a23.146,23.146,0,0,0,3.434,5.773c2.161,2.611,4.463,1.29,4.463,1.29l2.341-1.318h0a3.46,3.46,0,0,1,3.418-.015,3.3,3.3,0,0,1,1.693,2.917h.02v2.634s0,2.637,3.4,3.162v0a24.359,24.359,0,0,0,6.833-.025c3.4-.525,3.373-3.135,3.373-3.135v-2.689h-.009a3.3,3.3,0,0,1,1.7-2.854,3.458,3.458,0,0,1,3.424.021l0,0,2.341,1.322s2.3,1.324,4.465-1.286a23.126,23.126,0,0,0,3.441-5.77h0C103.21,1009.56,100.874,1008.24,100.874,1008.24Zm-1.946,2.74h0a19.81,19.81,0,0,1-1.453,3.01,20.089,20.089,0,0,1-1.952,2.745h0l-1.994-1.127a6.93,6.93,0,0,0-6.922-.076,6.6,6.6,0,0,0-3.383,6.214v1.925l0,0a20.959,20.959,0,0,1-6.8,0h0l-.006-.005v-2.462h-.013A6.609,6.609,0,0,0,73,1015.526a6.93,6.93,0,0,0-7.056.15l-1.851,1.042h0a20.075,20.075,0,0,1-1.949-2.747,19.848,19.848,0,0,1-1.449-3.012h0l0-.007,1.723-.97a6.57,6.57,0,0,0,.464-11.671l0,0L60.7,997.075v0a19.863,19.863,0,0,1,1.458-3.023,20.1,20.1,0,0,1,1.943-2.734h0l.007,0,1.814,1.024a6.929,6.929,0,0,0,7.091.178,6.605,6.605,0,0,0,3.395-5.867v-2.272l.006,0h0a20.954,20.954,0,0,1,6.8,0l0,0v2.463h0a6.608,6.608,0,0,0,3.393,5.683,6.928,6.928,0,0,0,6.736.037h0l.036-.021.085-.048,2.062-1.161.007,0h0a20.037,20.037,0,0,1,1.94,2.735,19.806,19.806,0,0,1,1.454,3.026v0l-1.657.933a6.573,6.573,0,0,0-.355,11.812l2,1.132,0,.007Z" transform="translate(-50.953 -975.672)" fill="#faf5ea"/>
</svg>
