<svg xmlns="http://www.w3.org/2000/svg" width="131.389" height="55.26" viewBox="0 0 131.389 55.26">
  <g id="Group_508" data-name="Group 508" transform="translate(-148.305 -48)">
    <g id="Group_56" data-name="Group 56" transform="translate(-118.127 -11.535)">
      <g id="Group_55" data-name="Group 55" transform="translate(296.067 83.492)">
        <g id="Group_54" data-name="Group 54">
          <path id="Path_1708" data-name="Path 1708" d="M315.281,99.271h.391c-.132-.079-.261-.163-.391-.246Z" transform="translate(-315.281 -99.025)" fill="#905340"/>
        </g>
      </g>
      <path id="Path_1709" data-name="Path 1709" d="M307.928,83.059v18.724H312.6V86.955A16.686,16.686,0,0,1,307.928,83.059ZM328.51,84.97a9.325,9.325,0,0,0-1.347.43l-.522-1.045a13.594,13.594,0,1,0-2.126,1.185l.5,1.006a10.105,10.105,0,0,0-1.165.9l10.862,20.43,4.657-2.476Zm-9.522-2.333a9.513,9.513,0,1,1,9.512-9.512A9.512,9.512,0,0,1,318.988,82.637Z" transform="translate(-15.327)" fill="#331e12"/>
      <path id="Path_1710" data-name="Path 1710" d="M274.852,108.062V79.849h-8.42v-4.4h21.512v4.4h-8.42v28.213Z" transform="translate(0 -6.261)" fill="#eedeba"/>
      <path id="Path_1711" data-name="Path 1711" d="M364.635,108.062V75.452h13.923v4.4h-9.251v9.572h8.061v4.4h-8.061v9.572h9.251v4.671Z" transform="translate(-38.628 -6.261)" fill="#eedeba"/>
      <path id="Path_1712" data-name="Path 1712" d="M407.089,84.663h-4.671V83.609a4.99,4.99,0,0,0-.756-2.771,2.8,2.8,0,0,0-2.542-1.168,2.942,2.942,0,0,0-1.557.366,3.064,3.064,0,0,0-.962.916,3.854,3.854,0,0,0-.5,1.351,8.877,8.877,0,0,0-.137,1.58,15.573,15.573,0,0,0,.069,1.6,3.044,3.044,0,0,0,.343,1.145,2.537,2.537,0,0,0,.8.871,7.324,7.324,0,0,0,1.443.733l3.572,1.42a8.873,8.873,0,0,1,2.519,1.4,6.036,6.036,0,0,1,1.512,1.855,8.7,8.7,0,0,1,.687,2.5,24.733,24.733,0,0,1,.183,3.183,16.787,16.787,0,0,1-.412,3.824,8.055,8.055,0,0,1-1.328,3,6.589,6.589,0,0,1-2.519,2.015,8.888,8.888,0,0,1-3.8.733,8.316,8.316,0,0,1-3.16-.6,7.488,7.488,0,0,1-2.519-1.649,7.994,7.994,0,0,1-1.672-2.45,7.433,7.433,0,0,1-.618-3.045V98.678h4.672v1.466a3.816,3.816,0,0,0,.755,2.313,2.942,2.942,0,0,0,2.542,1.031,4.1,4.1,0,0,0,1.855-.343,2.468,2.468,0,0,0,1.031-.985,3.614,3.614,0,0,0,.435-1.534q.069-.893.069-1.992a19.86,19.86,0,0,0-.092-2.107,3.646,3.646,0,0,0-.366-1.328,2.593,2.593,0,0,0-.848-.824,10.939,10.939,0,0,0-1.4-.687l-3.343-1.374a7.407,7.407,0,0,1-4.053-3.275,11.268,11.268,0,0,1-1.031-5.107,11.822,11.822,0,0,1,.5-3.481,7.912,7.912,0,0,1,1.511-2.84,6.936,6.936,0,0,1,2.45-1.9A8.187,8.187,0,0,1,399.3,75a7.757,7.757,0,0,1,3.183.641,8.225,8.225,0,0,1,2.5,1.694,7.078,7.078,0,0,1,2.107,5.038Z" transform="translate(-49.021 -6.083)" fill="#eedeba"/>
      <path id="Path_1713" data-name="Path 1713" d="M422.766,82.968a8.332,8.332,0,0,1,.687-3.48,7.356,7.356,0,0,1,1.832-2.519,7.745,7.745,0,0,1,2.5-1.465,8.316,8.316,0,0,1,8.175,1.465,7.676,7.676,0,0,1,1.787,2.519,8.342,8.342,0,0,1,.687,3.48v17.221a8.263,8.263,0,0,1-.687,3.526,7.267,7.267,0,0,1-1.787,2.427,7.839,7.839,0,0,1-2.542,1.512,8.13,8.13,0,0,1-5.633,0,7.325,7.325,0,0,1-2.5-1.512,6.979,6.979,0,0,1-1.832-2.427,8.254,8.254,0,0,1-.687-3.526Zm4.672,17.221a3.1,3.1,0,0,0,.939,2.5,3.477,3.477,0,0,0,4.443,0,3.1,3.1,0,0,0,.938-2.5V82.968a3.107,3.107,0,0,0-.938-2.5,3.479,3.479,0,0,0-4.443,0,3.105,3.105,0,0,0-.939,2.5Z" transform="translate(-61.493 -6.083)" fill="#eedeba"/>
      <path id="Path_1714" data-name="Path 1714" d="M455.38,108.062V75.452h7.512q8.244,0,8.244,9.572a12.066,12.066,0,0,1-.893,4.9,6.924,6.924,0,0,1-3.138,3.252l5.038,14.885H467.2l-4.351-13.923h-2.794v13.923Zm4.672-28.213V90.017h2.656a4.7,4.7,0,0,0,1.969-.343,2.68,2.68,0,0,0,1.145-.985,4.479,4.479,0,0,0,.5-1.58,17.246,17.246,0,0,0,0-4.351,4.355,4.355,0,0,0-.55-1.626q-.87-1.282-3.3-1.282Z" transform="translate(-74.322 -6.261)" fill="#eedeba"/>
      <text id="TROVA_IL_TESORO" data-name="TROVA IL TESORO" transform="translate(326.146 112.795)" fill="#eedeba" font-size="7" font-family="SegoeUI, Segoe UI"><tspan x="0" y="0">TROVA IL TESORO</tspan></text>
    </g>
  </g>
</svg>
